<svg height="512" viewBox="0 0 58 58" width="512" xmlns="http://www.w3.org/2000/svg"><g id="021---Sign-Language-N" fill="none"><path id="Shape" d="m54.4 57.2-8.4-11.2v10c0 1.1045695-.8954305 2-2 2s-2-.8954305-2-2v-16c0-.8608608.5508602-1.6251385 1.3675445-1.8973666.8166842-.2722281 1.715939.0086779 2.2324555.6973666l8.4 11.2v-10c0-1.1045695.8954305-2 2-2s2 .8954305 2 2v16c0 .8608608-.5508602 1.6251385-1.3675445 1.8973666-.8166842.2722281-1.715939-.0086779-2.2324555-.6973666z" fill="#ff5364"/><path id="Shape" d="m33 41.78v14.22c0 1.1045695-.8954305 2-2 2h-24c-1.1045695 0-2-.8954305-2-2v-15.78z" fill="#fdd7ad"/><g fill="#f9c795"><path id="Shape" d="m31.35 41.69c-1.66.44-.94.31-22.35.31-1.36822516-.0006566-2.72447304-.2549531-4-.75v-1z"/><path id="Shape" d="m10 55h-1c-.55228475 0-1-.4477153-1-1s.44771525-1 1-1h1c.5522847 0 1 .4477153 1 1s-.4477153 1-1 1z"/><path id="Shape" d="m29 55h-15c-.5522847 0-1-.4477153-1-1s.4477153-1 1-1h15c.5522847 0 1 .4477153 1 1s-.4477153 1-1 1z"/></g><path id="Shape" d="m34 15c3.3137085 0 6 2.6862915 6 6v12c0 4.9705627-4.0294373 9-9 9h-20c-6.07513225 0-11-4.9248678-11-11v-17c36.62 1.14 31.19 1 34 1z" fill="#fdd7ad"/><path id="Shape" d="m8 10v10c0 2.209139-1.790861 4-4 4s-4-1.790861-4-4v-10c0-2.209139 1.790861-4 4-4s4 1.790861 4 4z" fill="#f9c795"/><path id="Shape" d="m6 9v10c-.00138353 1.1860697-.52905999 2.3103627-1.44054107 3.0692865-.91148108.7589239-2.11276114 1.074207-3.27945893.8607135-.81543539-.7562555-1.27920777-1.8178595-1.28-2.93v-10c.00138353-1.18606968.52905999-2.31036268 1.44054107-3.06928655s2.11276114-1.07420694 3.27945893-.86071345l.11.1c.74995428.75078842 1.17083446 1.76881482 1.17 2.83z" fill="#fdd7ad"/><path id="Shape" d="m23 35c-.5522847 0-1-.4477153-1-1v-1c0-3.82 2.79-7.91 5.41-9.81.4473506-.325848 1.074152-.2273506 1.4.22.325848.4473507.2273506 1.074152-.22 1.4-2.21 1.6-4.59 5.19-4.59 8.19v1c0 .5522847-.4477153 1-1 1z" fill="#f9c795"/><path id="Shape" d="m30 24.14c-.3572656.0339402-.7054995-.1252966-.9135254-.4177276-.2080259-.2924309-.2442397-.6736288-.095-1s.4612598-.5483322.8185254-.5822724c1.7263392-.137811 3.4587418-.1845425 5.19-.14.5522847 0 1 .4477153 1 1s-.4477153 1-1 1c-1.6676839-.0906698-3.3400025-.0438448-5 .14z" fill="#f9c795"/><path id="Shape" d="m16 7v14c0 2.209139-1.790861 4-4 4s-4-1.790861-4-4v-14c0-2.209139 1.790861-4 4-4s4 1.790861 4 4z" fill="#f9c795"/><path id="Shape" d="m14 6v14c-.0013835 1.1860697-.52906 2.3103627-1.4405411 3.0692865-.9114811.7589239-2.1127611 1.074207-3.2794589.8607135-.81543539-.7562555-1.27920777-1.8178595-1.28-2.93v-14c.00138353-1.18606968.52905999-2.31036268 1.44054107-3.06928655.91148113-.75892387 2.11276113-1.07420694 3.27945893-.86071345l.11.1c.7499543.75078842 1.1708345 1.76881482 1.17 2.83z" fill="#fdd7ad"/><path id="Shape" d="m32 8v13c0 2.209139-1.790861 4-4 4s-4-1.790861-4-4v-13c0-2.209139 1.790861-4 4-4s4 1.790861 4 4z" fill="#f9c795"/><path id="Shape" d="m30 7v13c-.0013835 1.1860697-.52906 2.3103627-1.4405411 3.0692865-.9114811.7589239-2.1127611 1.074207-3.2794589.8607135-.8154354-.7562555-1.2792078-1.8178595-1.28-2.93v-13c.0013835-1.18606968.52906-2.31036268 1.4405411-3.06928655s2.1127611-1.07420694 3.2794589-.86071345l.11.1c.7499543.75078842 1.1708345 1.76881482 1.17 2.83z" fill="#fdd7ad"/><path id="Shape" d="m17 14v5.75c-.1539081 1.7807359-1.6043595 3.1712866-3.39 3.25-1.5440593-.7825739-2.5429599-2.3402467-2.61-4.07 0-2.72 2.69-4.93 6-4.93z" fill="#f9c795"/><path id="Shape" d="m16 15v8c-2.209139 0-4-1.790861-4-4s1.790861-4 4-4z" fill="#fdd7ad"/><path id="Shape" d="m16 15v8c-.1598459.009932-.3201541.009932-.48 0-.69-1.21-.52-1.63-.52-7.84.3243085-.099415.6608629-.1532637 1-.16z" fill="#f9c795"/><path id="Shape" d="m24 4v18c0 2.209139-1.790861 4-4 4s-4-1.790861-4-4v-18c0-2.209139 1.790861-4 4-4s4 1.790861 4 4z" fill="#f9c795"/><path id="Shape" d="m22 3v18c-.0013835 1.1860697-.52906 2.3103627-1.4405411 3.0692865-.9114811.7589239-2.1127611 1.074207-3.2794589.8607135-.8154354-.7562555-1.2792078-1.8178595-1.28-2.93v-18c.0013835-1.18606968.52906-2.31036268 1.4405411-3.06928655s2.1127611-1.07420695 3.2794589-.86071345l.11.1c.7499543.75078842 1.1708345 1.76881482 1.17 2.83z" fill="#fdd7ad"/></g></svg>