<?xml version="1.0" encoding="iso-8859-1"?>
<!-- Generator: Adobe Illustrator 19.0.0, SVG Export Plug-In . SVG Version: 6.00 Build 0)  -->
<svg version="1.1" id="Capa_1" xmlns="http://www.w3.org/2000/svg" xmlns:xlink="http://www.w3.org/1999/xlink" x="0px" y="0px"
	 viewBox="0 0 512.003 512.003" style="enable-background:new 0 0 512.003 512.003;" xml:space="preserve">
<g>
	<g transform="translate(1 1)">
		<g>
			<path style="fill:#BFB186;" d="M459.801,272.069v51.2c-1.197,10.419-10.476,17.987-20.922,17.067h-38.811
				c5.272-18.444,7.775-37.568,7.428-56.747v-20.053c0-2.901-0.105-5.717-0.314-8.533h31.698
				C449.326,254.082,458.605,261.65,459.801,272.069z"/>
			<path style="fill:#BFB186;" d="M109.935,344.858l-2.767-4.523H70.693c-10.334,0.825-19.434-6.754-20.492-17.067v-51.2
				c1.057-10.312,10.158-17.892,20.492-17.067h31.045c-0.205,2.816-0.308,5.632-0.308,8.533v20.053
				c-0.346,19.078,2.07,38.105,7.172,56.491C109.012,341.701,109.423,343.237,109.935,344.858z"/>
		</g>
		<path style="fill:#CC4B4C;" d="M92.952,306.202h-17.15c-4.713,0-8.533-3.82-8.533-8.533s3.821-8.533,8.533-8.533h17.15
			c4.713,0,8.533,3.82,8.533,8.533S97.664,306.202,92.952,306.202z"/>
		<path style="fill:#00695C;" d="M442.735,255.002h-25.856c0.171,2.816,0.256,5.632,0.256,8.533v20.053
			c0.287,19.091-1.748,38.146-6.059,56.747c-10.708,54.461-41.968,102.71-87.296,134.741c-13.007,8.881-26.941,16.32-41.557,22.187
			c-17.484,6.94-36.959,6.94-54.443,0C143.812,463.13,111.897,395.034,99.951,344.858c-0.427-1.621-0.768-3.157-1.109-4.779
			c-4.259-18.521-6.265-37.489-5.973-56.491v-20.053c0-2.901,0.085-5.717,0.256-8.533H67.268
			c-13.76-48.368-16.3-99.238-7.424-148.736c3.342-16.44,8.702-32.404,15.957-47.531c4.409,6.557,9.408,12.698,14.933,18.347
			l2.133-1.28c47.848-32.61,104.235-50.416,162.133-51.2c93.867,0,93.867-17.067,93.867-17.067s60.501,13.483,50.176,82.091
			c16.213-1.792,35.157-30.891,35.157-30.891C476.868,147.056,442.735,255.002,442.735,255.002z"/>
		<path style="fill:#009688;" d="M404.42,289.136h-25.856c0.171,2.816,0.256,5.632,0.256,8.533v20.053
			c0.287,19.091-1.748,38.146-6.059,56.747c-7.711,37.086-24.546,71.664-48.981,100.608c-13.007,8.881-26.941,16.32-41.557,22.187
			c-17.484,6.94-36.959,6.94-54.443,0C143.812,463.13,111.897,395.034,99.951,344.858c-0.427-1.621-0.768-3.157-1.109-4.779
			c-4.259-18.521-6.265-37.489-5.973-56.491v-20.053c0-2.901,0.085-5.717,0.256-8.533H67.268
			c-13.76-48.368-16.3-99.238-7.424-148.736c46.797-30.222,101.142-46.691,156.843-47.531c93.867,0,93.867-17.067,93.867-17.067
			s60.501,13.483,50.176,82.091c16.213-1.792,35.157-30.891,35.157-30.891C438.553,181.189,404.42,289.136,404.42,289.136z"/>
		<path style="fill:#CC4B4C;" d="M434.202,306.202h-17.15c-4.713,0-8.533-3.82-8.533-8.533s3.82-8.533,8.533-8.533h17.15
			c4.713,0,8.533,3.82,8.533,8.533S438.914,306.202,434.202,306.202z"/>
		<path style="fill:#BFB186;" d="M411.076,340.336c-9.603,47.821-34.852,91.084-71.765,122.965
			c-17.144,14.226-36.406,25.685-57.088,33.963c-17.484,6.94-36.959,6.94-54.443,0C143.812,463.13,111.897,395.034,99.951,344.858
			c-0.427-1.621-0.768-3.157-1.109-4.779c-4.259-18.521-6.265-37.489-5.973-56.491v-20.053c0-2.901,0.085-5.717,0.256-8.533
			c0.193-4.715,0.649-9.416,1.365-14.08c2.938-9.197,6.828-18.063,11.605-26.453c9.557-16.384,24.661-32.085,46.507-27.733
			c22.1,4.755,45.171,1.424,65.024-9.387c6.536-3.741,12.392-8.559,17.323-14.251c14.108-17.365,21.256-39.355,20.053-61.696
			c0,76.8,59.733,93.867,102.4,85.333c35.157-6.997,52.907,38.059,58.112,54.187c0.717,4.664,1.173,9.365,1.365,14.08
			c0.171,2.816,0.256,5.632,0.256,8.533v20.053C417.422,302.68,415.387,321.736,411.076,340.336z"/>
		<path style="fill:#FFE0B2;" d="M385.561,365.936c-7.5,35.656-23.351,69.025-46.251,97.365
			c-17.144,14.226-36.406,25.685-57.088,33.963c-17.484,6.94-36.959,6.94-54.443,0C143.812,463.13,111.897,395.034,99.951,344.858
			c-0.427-1.621-0.768-3.157-1.109-4.779c-4.259-18.521-6.265-37.489-5.973-56.491v-20.053c0-2.901,0.085-5.717,0.256-8.533
			c0.193-4.715,0.649-9.416,1.365-14.08c2.938-9.197,6.828-18.063,11.605-26.453c6.611-2.854,13.942-3.599,20.992-2.133
			c30.976,6.229,70.997-1.109,90.539-34.987c6.536-3.741,12.392-8.559,17.323-14.251c15.616,46.08,62.037,56.235,96.939,49.237
			c35.157-6.997,52.907,38.059,58.112,54.187c0.717,4.664,1.173,9.365,1.365,14.08c0.171,2.816,0.256,5.632,0.256,8.533v20.053
			C391.907,328.28,389.873,347.336,385.561,365.936z"/>
		<path style="fill:#D25627;" d="M237.935,289.136c-2.263,0.001-4.434-0.898-6.035-2.499c-1.6-1.6-2.499-3.771-2.499-6.035
			c-0.011-9.421-7.645-17.056-17.067-17.067h-76.8c-4.713,0-8.533-3.82-8.533-8.533c0-4.713,3.82-8.533,8.533-8.533h76.8
			c18.843,0.02,34.113,15.29,34.133,34.133c0.001,2.263-0.898,4.434-2.499,6.035C242.369,288.238,240.198,289.136,237.935,289.136z"
			/>
		<path style="fill:#02A9F4;" d="M161.135,289.136h42.667v21.333c0,5.658-2.248,11.084-6.248,15.085
			c-4.001,4.001-9.427,6.248-15.085,6.248c-11.782,0-21.333-9.551-21.333-21.333V289.136z"/>
		<path style="fill:#D25627;" d="M272.068,289.136c-2.263,0.001-4.434-0.898-6.035-2.499c-1.6-1.6-2.499-3.771-2.499-6.035
			c0.02-18.843,15.29-34.113,34.133-34.133h76.8c4.713,0,8.533,3.821,8.533,8.533c0,4.713-3.821,8.533-8.533,8.533h-76.8
			c-9.421,0.011-17.056,7.645-17.067,17.067c0.001,2.263-0.898,4.434-2.499,6.035C276.502,288.238,274.332,289.136,272.068,289.136z
			"/>
		<path style="fill:#02A9F4;" d="M327.535,331.802c-5.658,0-11.084-2.248-15.085-6.248c-4.001-4.001-6.248-9.427-6.248-15.085
			v-21.333h42.667v21.333C348.868,322.251,339.317,331.802,327.535,331.802z"/>
		<g>
			<path style="fill:#CC4B4C;" d="M272.068,383.002h-34.133c-4.713,0-8.533-3.82-8.533-8.533s3.82-8.533,8.533-8.533h34.133
				c4.713,0,8.533,3.821,8.533,8.533S276.781,383.002,272.068,383.002z"/>
			<path style="fill:#CC4B4C;" d="M255.001,434.202c-53.2,0-72.3-17.563-74.3-19.567c-3.314-3.315-3.334-8.681-0.045-12.021
				c3.289-3.339,8.655-3.401,12.02-0.138c0.533,0.479,16.791,14.659,62.325,14.659c46.083,0,62.183-14.521,62.333-14.671
				c3.41-3.196,8.75-3.08,12.017,0.262c3.248,3.313,3.226,8.623-0.05,11.908C327.302,416.64,308.202,434.202,255.001,434.202z"/>
			<path style="fill:#CC4B4C;" d="M255.001,348.869c-2.263,0.001-4.434-0.898-6.035-2.499c-1.6-1.6-2.499-3.771-2.499-6.035v-17.067
				c0-4.713,3.82-8.533,8.533-8.533c4.713,0,8.533,3.82,8.533,8.533v17.067c0.001,2.263-0.898,4.434-2.499,6.035
				C259.436,347.971,257.265,348.87,255.001,348.869z"/>
		</g>
		<g>
			<path style="fill:#2C2F38;" d="M203.801,297.669h-59.733c-4.713,0-8.533-3.82-8.533-8.533s3.821-8.533,8.533-8.533h59.733
				c4.713,0,8.533,3.82,8.533,8.533S208.514,297.669,203.801,297.669z"/>
			<path style="fill:#2C2F38;" d="M365.935,297.669h-59.733c-4.713,0-8.533-3.82-8.533-8.533s3.82-8.533,8.533-8.533h59.733
				c4.713,0,8.533,3.82,8.533,8.533S370.648,297.669,365.935,297.669z"/>
		</g>
	</g>
	<g>
		<path d="M42.668,273.069v51.2c0.015,14.132,11.468,25.585,25.6,25.6h25.226c12.995,52.02,46.404,121.489,132.041,156.271
			c9.669,3.907,20.005,5.898,30.433,5.862h0.067c10.429,0.036,20.765-1.956,30.433-5.867
			c85.636-34.78,119.045-104.247,132.041-156.267h25.226c14.132-0.015,25.585-11.468,25.6-25.6v-51.2
			c-0.023-10.015-5.886-19.096-15.005-23.238c7.27-27.978,25.602-117.125-11.445-193.808c-1.341-2.77-4.069-4.604-7.141-4.8
			c-3.071-0.196-6.011,1.277-7.693,3.854c-5.128,7.823-11.266,14.936-18.255,21.153c0.35-13.567-2.82-26.993-9.203-38.97
			C389.89,18.89,372.296,5.552,351.718,0.207c-4.229-0.946-8.493,1.434-9.908,5.53c-2.175,1.912-16.392,11.333-85.808,11.333
			C198.02,17.763,141.454,35.08,93.021,66.965c-3.292-3.755-6.325-7.729-9.078-11.895c-1.683-2.574-4.621-4.043-7.691-3.846
			c-3.069,0.198-5.795,2.031-7.134,4.8c-37.047,76.682-18.716,165.83-11.445,193.808C48.555,253.974,42.691,263.054,42.668,273.069z
			 M68.268,332.802c-4.711-0.005-8.529-3.822-8.533-8.533v-51.2c0.005-4.706,3.816-8.521,8.522-8.531l0.011,0.002l0.027-0.004h17.04
			v19.873c-0.02,0.554-0.066,2.53-0.018,5.727h-8.515c-4.713,0-8.533,3.82-8.533,8.533s3.821,8.533,8.533,8.533h9.457
			c0.652,7.27,1.733,15.927,3.518,25.6H68.268z M280.051,490.323c-7.638,3.057-15.79,4.623-24.017,4.613h-0.067
			c-8.226,0.009-16.378-1.555-24.017-4.608c-135.017-54.842-129.85-199.234-129.559-205.35c0.003-0.069-0.032-0.128-0.03-0.196
			c0.002-0.068,0.039-0.124,0.039-0.191v-20.054c-0.015-6.931,0.472-13.855,1.457-20.716c4.426-13.492,20.048-53.27,48.068-47.718
			c28.389,6.45,58.177,0.025,81.383-17.554c9.946-8.254,17.734-18.804,22.692-30.74c4.958,11.936,12.746,22.486,22.692,30.74
			c23.208,17.575,52.994,24,81.383,17.554c27.756-5.548,43.193,32.88,48.071,47.745c0.983,6.852,1.469,13.766,1.454,20.688v20.054
			c0,0.069,0.037,0.126,0.039,0.194c0.002,0.071-0.034,0.131-0.031,0.202C409.685,286.482,415.352,435.373,280.051,490.323z
			 M452.268,324.269c-0.005,4.711-3.822,8.529-8.533,8.533h-21.509c1.785-9.673,2.867-18.33,3.518-25.6h9.457
			c4.713,0,8.533-3.82,8.533-8.533s-3.821-8.533-8.533-8.533h-8.515c0.048-3.197,0.002-5.173-0.018-5.727v-19.873h17.067
			c4.711,0.005,8.529,3.822,8.533,8.533V324.269z M78.743,76.661c10.808,12.975,28.742,29.3,44.975,19.912
			c2.661-1.509,4.309-4.327,4.321-7.386c0.012-3.059-1.615-5.89-4.264-7.42c-2.649-1.53-5.914-1.524-8.557,0.014
			c-2.048,1.165-5.429-0.088-9.346-2.794c44.986-28.429,96.921-43.945,150.129-44.852c52.942,0,85.542-5.229,97.367-15.571
			c13.585,4.891,25.008,14.418,32.258,26.904c9.875,17.996,9.5,41.912-1.108,71.083c-1.051,2.866-0.49,6.076,1.47,8.416
			c1.961,2.34,5.022,3.454,8.029,2.921c3.006-0.533,5.498-2.632,6.535-5.504c3.003-8.147,5.358-16.519,7.043-25.037
			c10.072-4.771,18.866-11.867,25.657-20.705c27.109,69.766,9.763,148.861,4.007,170.825h-10.753
			c0.056-0.692,0.024-1.387-0.095-2.071c-0.775-3.108-19.5-76.05-69.683-66.029c-23.377,5.447-47.966,0.319-67.217-14.017
			c-16.575-13.587-24.975-34.767-24.975-62.95c0-4.713-3.821-8.533-8.533-8.533c-4.713,0-8.533,3.821-8.533,8.533
			c0,28.183-8.4,49.363-24.975,62.95c-19.249,14.347-43.847,19.474-67.225,14.012c-28.642-5.696-53.967,16.729-67.883,59.904
			c-1.258,3.829-1.817,6.221-1.817,6.221c-0.101,0.655-0.122,1.32-0.063,1.98H74.736C68.97,225.528,51.585,146.527,78.743,76.661z"
			/>
		<path d="M213.335,264.536c9.421,0.011,17.056,7.645,17.067,17.067c0,4.713,3.82,8.533,8.533,8.533s8.533-3.821,8.533-8.533
			c-0.02-18.843-15.29-34.113-34.133-34.133h-76.8c-4.713,0-8.533,3.821-8.533,8.533s3.821,8.533,8.533,8.533H213.335z"/>
		<path d="M213.335,311.469v-21.333c0.001-2.263-0.898-4.434-2.499-6.035c-1.6-1.6-3.771-2.499-6.035-2.499h-59.733
			c-4.713,0-8.533,3.82-8.533,8.533s3.821,8.533,8.533,8.533h8.533v12.8c0,16.495,13.372,29.867,29.867,29.867
			S213.335,327.964,213.335,311.469z M170.668,311.469v-12.8h25.6v12.8c0,7.069-5.731,12.8-12.8,12.8
			S170.668,318.538,170.668,311.469z"/>
		<path d="M375.468,247.469h-76.8c-18.843,0.02-34.113,15.29-34.133,34.133c0,4.713,3.82,8.533,8.533,8.533s8.533-3.821,8.533-8.533
			c0.011-9.421,7.645-17.056,17.067-17.067h76.8c4.713,0,8.533-3.82,8.533-8.533S380.181,247.469,375.468,247.469z"/>
		<path d="M366.935,281.602h-59.733c-2.263-0.001-4.434,0.898-6.035,2.499c-1.6,1.6-2.499,3.771-2.499,6.035v21.333
			c0,16.495,13.372,29.867,29.867,29.867s29.867-13.372,29.867-29.867v-12.8h8.533c4.713,0,8.533-3.82,8.533-8.533
			S371.648,281.602,366.935,281.602z M341.335,311.469c0,7.069-5.731,12.8-12.8,12.8s-12.8-5.731-12.8-12.8v-12.8h25.6V311.469z"/>
		<path d="M230.401,375.469c-0.001,2.263,0.898,4.434,2.499,6.035c1.6,1.6,3.771,2.499,6.035,2.499h34.133
			c4.713,0,8.533-3.82,8.533-8.533s-3.82-8.533-8.533-8.533h-34.133c-2.263-0.001-4.434,0.898-6.035,2.499
			C231.3,371.035,230.401,373.206,230.401,375.469z"/>
		<path d="M318.335,403.465c-0.15,0.15-16.25,14.671-62.333,14.671c-45.533,0-61.792-14.179-62.325-14.658
			c-3.367-3.25-8.722-3.182-12.005,0.152c-3.283,3.334-3.27,8.689,0.031,12.006c2,2.004,21.1,19.567,74.3,19.567
			s72.3-17.563,74.3-19.567c3.276-3.285,3.299-8.596,0.05-11.908C327.084,400.385,321.745,400.269,318.335,403.465z"/>
		<path d="M247.468,341.336c0,4.713,3.82,8.533,8.533,8.533c4.713,0,8.533-3.821,8.533-8.533v-17.067
			c0-4.713-3.821-8.533-8.533-8.533c-4.713,0-8.533,3.82-8.533,8.533V341.336z"/>
	</g>
</g>
<g>
</g>
<g>
</g>
<g>
</g>
<g>
</g>
<g>
</g>
<g>
</g>
<g>
</g>
<g>
</g>
<g>
</g>
<g>
</g>
<g>
</g>
<g>
</g>
<g>
</g>
<g>
</g>
<g>
</g>
</svg>
